{"title":"Knight.And.Day.2010.DVDRip.XviD-FTP RU.avi","uid":5836455,"size":1468125184,"categoryP":"video","categoryS":"movies","magnet":"?xt=urn:btih:7e3d4ec775466d25326362903a95bb2698dc2a0a&amp;dn=Knight.And.Day.2010.DVDRip.XviD-FTP+RU.avi&amp;tr=udp%3A%2F%2Ftracker.openbittorrent.com%3A80&amp;tr=udp%3A%2F%2Fopen.demonii.com%3A1337&amp;tr=udp%3A%2F%2Ftracker.coppersurfer.tk%3A6969&amp;tr=udp%3A%2F%2Fexodus.desync.com%3A6969","seeders":0,"leechers":0,"uploader":"razvanripper","files":-1,"time":1284736954,"description":"Link                             : http://www.imdb.com/title/tt1013743/\nFormat                           : AVI\nFormat/Info                      : Audio Video Interleave\nFile size                        : 1.37 GiB\nDuration                         : 1h 45mn\nOverall bit rate                 : 1 864 Kbps\nWriting application              : VirtualDubMod 1.5.10.2 (build 2540/release)\nWriting library                  : VirtualDubMod build 2540/release\n\nVideo\nFormat                           : MPEG-4 Visual\nFormat profile                   : Streaming Video@L1\nFormat settings, BVOP            : Yes\nFormat settings, QPel            : No\nFormat settings, GMC             : No warppoints\nFormat settings, Matrix          : Custom\nCodec ID                         : XVID\nCodec ID/Hint                    : XviD\nDuration                         : 1h 45mn\nBit rate                         : 1 470 Kbps\nWidth                            : 720 pixels\nHeight                           : 304 pixels\nDisplay aspect ratio             : 2.35\nFrame rate                       : 25.000 fps\nResolution                       : 24 bits\nColorimetry                      : 4:2:0\nScan type                        : Progressive\nBits/(Pixel*Frame)               : 0.269\nStream size                      : 1.08 GiB (79%)\nWriting library                  : XviD 1.2.1 (UTC 2008-12-04)\n\nAudio                             : Russian\nFormat                           : AC-3\nFormat/Info                      : Audio Coding 3\nCodec ID                         : 2000\nDuration                         : 1h 45mn\nBit rate mode                    : Constant\nBit rate                         : 384 Kbps\nChannel(s)                       : 6 channels\nChannel positions                : Front: L C R, Surround: L R, LFE\nSampling rate                    : 48.0 KHz\nStream size                      : 289 MiB (21%)\nAlignment                        : Split accross interleaves\nInterleave, duration             : 40 ms (1.00 video frame)\nInterleave, preload duration     : 500 ms\n\n","torrent":{"xt":"urn:btih:7e3d4ec775466d25326362903a95bb2698dc2a0a","amp;dn":"Knight.And.Day.2010.DVDRip.XviD-FTP+RU.avi","amp;tr":["udp%3A%2F%2Ftracker.openbittorrent.com%3A80","udp%3A%2F%2Fopen.demonii.com%3A1337","udp%3A%2F%2Ftracker.coppersurfer.tk%3A6969","udp%3A%2F%2Fexodus.desync.com%3A6969"],"infoHash":"7e3d4ec775466d25326362903a95bb2698dc2a0a","infoHashBuffer":{"type":"Buffer","data":[126,61,78,199,117,70,109,37,50,99,98,144,58,149,187,38,152,220,42,10]},"announce":[],"urlList":[]}}